<svg width="24" height="24" viewBox="0 0 24 24" fill="none" xmlns="http://www.w3.org/2000/svg">
<g clip-path="url(#clip0)">
<path d="M10.2679 4C11.0377 2.66667 12.9623 2.66667 13.7321 4L19.7942 14.5C20.564 15.8333 19.6018 17.5 18.0622 17.5H5.93782C4.39822 17.5 3.43597 15.8333 4.20577 14.5L10.2679 4Z" fill="#0057FF" fill-opacity="0.5"/>
<path d="M13.7321 20C12.9623 21.3333 11.0377 21.3333 10.2679 20L4.20577 9.5C3.43597 8.16667 4.39822 6.5 5.93782 6.5L18.0622 6.5C19.6018 6.5 20.564 8.16667 19.7942 9.5L13.7321 20Z" fill="#0057FF" fill-opacity="0.5"/>
<path d="M14.624 14.216C14.304 14.504 13.9147 14.7333 13.456 14.904C12.9973 15.0747 12.528 15.16 12.048 15.16C11.5573 15.16 11.0933 15.0693 10.656 14.888C10.2293 14.696 9.856 14.4453 9.536 14.136C9.216 13.816 8.96 13.4427 8.768 13.016C8.58667 12.5893 8.496 12.136 8.496 11.656C8.496 11.176 8.58667 10.7227 8.768 10.296C8.96 9.86933 9.216 9.496 9.536 9.176C9.856 8.856 10.224 8.60533 10.64 8.424C11.0667 8.232 11.52 8.136 12 8.136C12.7573 8.136 13.4133 8.36533 13.968 8.824C14.5333 9.272 14.9387 9.864 15.184 10.6C14.8533 10.7173 14.4747 10.8613 14.048 11.032C13.6213 11.2027 13.1787 11.384 12.72 11.576C12.2613 11.7573 11.8027 11.9387 11.344 12.12C10.8853 12.3013 10.4587 12.4667 10.064 12.616C10.2453 12.9787 10.5067 13.272 10.848 13.496C11.2 13.7093 11.5893 13.816 12.016 13.816C12.304 13.816 12.592 13.7627 12.88 13.656C13.1787 13.5493 13.4187 13.4053 13.6 13.224L14.624 14.216ZM13.472 10.28C13.344 10.0133 13.1413 9.816 12.864 9.688C12.5867 9.54933 12.304 9.48 12.016 9.48C11.7067 9.48 11.4187 9.53867 11.152 9.656C10.896 9.77333 10.672 9.93333 10.48 10.136C10.288 10.328 10.1333 10.552 10.016 10.808C9.90933 11.064 9.856 11.3253 9.856 11.592C9.856 11.6453 9.856 11.6827 9.856 11.704C9.86667 11.7253 9.872 11.7413 9.872 11.752C10.1493 11.6453 10.448 11.528 10.768 11.4C11.0987 11.2613 11.424 11.128 11.744 11C12.064 10.8613 12.3733 10.7333 12.672 10.616C12.9707 10.488 13.2373 10.376 13.472 10.28Z" fill="white"/>
</g>
<defs>
<clipPath id="clip0">
<rect width="24" height="24" fill="white"/>
</clipPath>
</defs>
</svg>
